<svg width="16" height="16" viewBox="0 0 16 16" fill="none" xmlns="http://www.w3.org/2000/svg">
<g opacity="0.5" clip-path="url(#clip0_20_3510)">
<path d="M0.919239 14.9192C0.862978 14.8629 0.831371 14.7866 0.831371 14.707C0.831371 14.6275 0.862978 14.5512 0.919239 14.4949L14.4957 0.918451C14.5519 0.86219 14.6283 0.830582 14.7078 0.830582C14.7874 0.830583 14.8637 0.86219 14.92 0.918451C14.9762 0.974712 15.0078 1.05102 15.0078 1.13058C15.0078 1.21015 14.9762 1.28645 14.92 1.34271L1.3435 14.9192C1.28724 14.9754 1.21094 15.007 1.13137 15.007C1.05181 15.007 0.9755 14.9754 0.919239 14.9192Z" fill="#0D003B" stroke="#0D003B"/>
<path d="M14.9201 14.9192C14.9764 14.8629 15.008 14.7866 15.008 14.707C15.008 14.6275 14.9764 14.5512 14.9201 14.4949L1.34366 0.918449C1.2874 0.862188 1.2111 0.830581 1.13153 0.830581C1.05197 0.830581 0.975663 0.862187 0.919401 0.91845C0.863138 0.974712 0.831532 1.05102 0.831532 1.13058C0.831532 1.21014 0.863139 1.28645 0.9194 1.34271L14.4959 14.9192C14.5521 14.9754 14.6284 15.007 14.708 15.007C14.7875 15.007 14.8639 14.9754 14.9201 14.9192Z" fill="#0D003B" stroke="#0D003B"/>
</g>
<defs>
<clipPath id="clip0_20_3510">
<rect width="16" height="16" fill="white"/>
</clipPath>
</defs>
</svg>
