<svg width="100" height="100" viewBox="0 0 100 100" fill="none" xmlns="http://www.w3.org/2000/svg">
<path d="M99.9414 49.927L93.2552 48.4955L94.4575 48.7584C94.4282 48.1741 94.3988 47.5898 94.3402 47.0348C94.3109 46.6258 93.9296 46.1876 93.5191 46.0999L91.6716 45.6617C91.261 45.5741 90.9971 45.8078 91.0264 46.2168C91.1144 46.8303 91.173 47.4438 91.2023 48.0865L67.39 42.974L85.5425 14.9576L57.742 32.8367L51.9355 5.95969L52.1115 6.71924C52.1115 6.71924 52.2288 6.45631 52.2874 6.31024C52.434 5.95967 52.2581 5.66754 51.8769 5.63833L50.6452 0L41.9648 40.1987L41.261 40.3447L17.2141 16.3891L17.1261 16.2431L43.3724 33.6255L43.607 32.603L21.4076 18.3173L21.9062 18.6386C21.6716 18.0835 21.4369 17.4993 21.2023 16.9442C21.0557 16.5644 20.6745 16.4768 20.3812 16.7689C20.2053 16.9442 20.0293 17.1487 19.824 17.324L15.22 14.3734L18.4751 19.369C18.4751 19.369 18.4751 19.6027 18.5337 19.6903C18.827 20.2454 19.1202 20.8005 19.4135 21.3555C19.5308 21.5892 19.7654 21.6769 19.9414 21.6477L19.824 21.4432L33.1965 42.0684L0 49.1966L5.45455 50.3652C5.48387 51.154 5.54252 51.9427 5.63049 52.7315C5.65982 53.1405 6.04105 53.5787 6.45161 53.6664L8.29913 54.1046C8.70969 54.1922 8.97362 53.9585 8.94429 53.5787C8.85632 52.8776 8.79764 52.1472 8.73899 51.4169C8.73899 51.3 8.68036 51.154 8.62171 51.0371L32.9032 56.2664L19.1496 77.5051L19.2375 77.359C18.9443 77.0669 18.6804 76.7748 18.3871 76.4826C18.1232 76.1905 17.5953 76.0736 17.2141 76.2197C16.5982 76.4534 15.9824 76.6579 15.3959 76.8624C15.0147 76.9793 14.8974 77.359 15.1613 77.6804C15.6891 78.2939 16.217 78.8782 16.7742 79.4625C16.9795 79.6962 17.3607 79.813 17.6833 79.7838L14.3402 84.9255L19.0616 81.8872C19.2669 82.0625 19.4428 82.2378 19.6481 82.4131C19.9707 82.676 20.5279 82.7345 20.8798 82.53L22.522 81.5951C22.8739 81.3906 22.9032 81.0108 22.61 80.7479C22.346 80.5434 22.1114 80.3097 21.8475 80.1052L42.7273 66.6959L48.0059 91.1189C48.0059 91.1189 47.9179 91.0897 47.8592 91.0897C47.1261 91.0897 46.4223 91.0313 45.6892 91.0021C45.3079 90.9728 44.8387 91.2358 44.6628 91.6156C44.3695 92.1998 44.0762 92.7549 43.783 93.3392C43.607 93.6898 43.783 94.0403 44.1935 94.0695C44.9853 94.1572 45.7771 94.1864 46.5983 94.2156C47.0088 94.2156 47.478 93.9235 47.6246 93.5437C47.8299 93.047 48.0059 92.5504 48.2112 92.0538V91.9077L49.9414 100L57.2141 66.3745L57.0381 67.2217L78.915 81.303L77.9179 80.6603C77.8592 80.894 77.8592 81.1569 77.9179 81.3614C78.1525 81.9457 78.4164 82.5592 78.651 83.1434C78.7977 83.5232 79.1789 83.6109 79.4721 83.3187C79.824 82.9974 80.1466 82.6468 80.4985 82.2962L85.6598 85.6266L67.1554 57.0552L91.2317 51.8843C91.2317 52.1473 91.2317 52.4102 91.2317 52.6731C91.2317 53.0529 91.525 53.4911 91.8769 53.6664C92.4634 53.9293 93.0499 54.1922 93.6364 54.4552C94.0176 54.6304 94.3402 54.4552 94.3695 54.0169C94.4282 53.2282 94.4282 52.4394 94.4282 51.6214C94.4282 51.4753 94.3695 51.3292 94.3109 51.1832L100 49.9562L99.9414 49.927ZM83.4898 16.915L83.6364 16.8274L66.3637 42.7403L59.5894 41.2796L59.5015 40.8414L83.5191 16.915H83.4898ZM41.0264 49.927C41.0264 45.019 45.044 41.0459 49.9414 41.0459C54.8387 41.0459 58.8563 45.019 58.8563 49.927C58.8563 54.8349 54.8387 58.8081 49.9414 58.8081C45.044 58.8081 41.0264 54.8349 41.0264 49.927ZM50.6452 2.62928L58.5337 41.6886C56.5103 39.5852 53.7243 38.2413 50.6158 38.066V2.62928H50.6452ZM2.84458 49.1966H2.69794L41.8182 41.3088C39.6774 43.3246 38.2991 46.0999 38.1232 49.1966H2.87389H2.84458ZM16.3636 82.8513L16.217 82.9389L33.9003 56.4417L40.8211 57.9317L40.9091 58.3698L16.3343 82.8513H16.3636ZM49.912 97.2247L42.1408 58.8665C44.2229 60.6778 46.9502 61.7879 49.9414 61.7879V97.1954L49.912 97.2247ZM83.607 83.494L83.695 83.6401L57.1848 66.0824L58.7683 58.7496L83.607 83.494ZM59.0616 57.5811C60.8211 55.5069 61.8768 52.8484 61.8768 49.927C61.8768 49.927 61.8768 49.927 61.8768 49.8978H97.2434L59.0616 57.6103V57.5811Z" fill="#1D2361"/>
<path d="M74.1345 15.8049C73.8119 16.0387 73.8119 16.4184 74.1345 16.6522C74.721 17.0612 75.3076 17.4702 75.8941 17.9084C76.2166 18.1421 76.7445 18.1713 77.0964 17.9376C77.6536 17.6162 78.2108 17.2657 78.768 16.9735C79.1199 16.769 79.1785 16.3892 78.8266 16.1263C78.2108 15.6297 77.5656 15.1622 76.9204 14.6948C76.5685 14.4611 76.0113 14.4611 75.6888 14.6948C75.1609 15.0454 74.6624 15.4252 74.1638 15.8049H74.1345Z" fill="#1D2361"/>
<path d="M70.8795 13.7012C70.5863 13.9641 70.6156 14.3439 70.9382 14.5484C71.5834 14.899 72.1992 15.2496 72.815 15.6293C73.1376 15.8338 73.6654 15.8046 74.0173 15.5709C74.5452 15.1911 75.0731 14.8113 75.601 14.4608C75.9529 14.2271 75.9529 13.8473 75.601 13.6136C74.9265 13.1753 74.252 12.7663 73.5482 12.3573C73.1963 12.1528 72.6391 12.2113 72.3165 12.4742L70.8795 13.7304V13.7012Z" fill="#1D2361"/>
<path d="M67.5665 12.7674C68.2409 13.0596 68.8861 13.3517 69.5313 13.6731C69.8832 13.8484 70.4111 13.7607 70.7043 13.4978C71.2028 13.0596 71.6721 12.6506 72.1706 12.2416C72.4932 11.9787 72.4638 11.5989 72.0826 11.3944C71.3788 11.0146 70.6456 10.664 69.9418 10.3427C69.5606 10.1674 69.0034 10.255 68.7395 10.5764L67.4492 11.9494C67.1852 12.2416 67.2439 12.6214 67.5958 12.7674H67.5665Z" fill="#1D2361"/>
<path d="M63.6072 11.1308C64.2817 11.3353 64.9855 11.569 65.66 11.832C66.0119 11.9488 66.5397 11.832 66.8037 11.5398C67.2435 11.0724 67.6834 10.605 68.1233 10.1375C68.4166 9.84541 68.3286 9.46563 67.9473 9.31956C67.2142 9.02741 66.4517 8.73525 65.6893 8.50154C65.2787 8.35547 64.7509 8.50155 64.5163 8.85212C64.135 9.34876 63.7245 9.84541 63.3726 10.342C63.138 10.6634 63.226 11.0432 63.6072 11.16V11.1308Z" fill="#1D2361"/>
<path d="M88.827 34.2398C88.4164 34.269 88.2112 34.5904 88.3578 34.9409C88.651 35.6129 88.9149 36.2848 89.1495 36.9567C89.2669 37.3073 89.736 37.6286 90.1466 37.6286C90.7918 37.6286 91.4369 37.6871 92.0821 37.7163C92.4927 37.7163 92.7273 37.4534 92.5806 37.0444C92.3167 36.2848 92.0234 35.5544 91.7595 34.7949C91.6129 34.4151 91.1144 34.0937 90.7332 34.1229C90.088 34.1229 89.4721 34.1814 88.827 34.2398Z" fill="#1D2361"/>
<path d="M59.9418 10.0475C60.6456 10.1935 61.3494 10.3688 62.0532 10.5733C62.4345 10.661 62.933 10.4857 63.1676 10.1643C63.5488 9.63846 63.9594 9.14183 64.3699 8.64519C64.6338 8.32383 64.5166 7.97327 64.106 7.85641C63.3435 7.6227 62.581 7.41818 61.7893 7.2429C61.3787 7.15526 60.8508 7.35977 60.6456 7.71034L59.6485 9.31712C59.4432 9.66769 59.5899 10.0183 59.9418 10.1059V10.0475Z" fill="#1D2361"/>
<path d="M87.2142 30.7328C86.8036 30.7912 86.657 31.1418 86.833 31.4631C87.1849 32.1058 87.5075 32.7486 87.83 33.3913C88.006 33.7418 88.4752 34.0048 88.8565 33.9755C89.5016 33.9463 90.1467 33.9171 90.7919 33.8879C91.2025 33.8879 91.4078 33.5666 91.2318 33.1868C90.9092 32.4564 90.5573 31.7553 90.2054 31.0249C90.0295 30.6451 89.5016 30.4114 89.1204 30.4699C88.5045 30.5575 87.8594 30.6451 87.2435 30.762L87.2142 30.7328Z" fill="#1D2361"/>
<path d="M84.5164 23.2236C83.9299 23.4281 83.314 23.6326 82.7275 23.8663C82.3463 24.0123 82.229 24.3629 82.4929 24.6551C82.9621 25.2101 83.402 25.7652 83.8419 26.3495C84.0765 26.6708 84.575 26.8169 84.9856 26.7293C85.6014 26.554 86.2466 26.4079 86.8624 26.2618C87.273 26.1742 87.3903 25.8236 87.1557 25.4731C86.6865 24.8304 86.2173 24.1876 85.7187 23.5741C85.4548 23.2528 84.9269 23.1067 84.5457 23.2236H84.5164Z" fill="#1D2361"/>
<path d="M77.3319 18.2883C76.98 18.4928 76.9506 18.8726 77.2439 19.1063C77.5078 19.3108 77.7424 19.5445 78.0063 19.7782L80.7923 17.9961C80.587 17.8209 80.411 17.6456 80.2058 17.4703C79.9125 17.2074 79.326 17.1489 78.9741 17.3534C78.4169 17.6748 77.8891 17.9961 77.3319 18.3175V18.2883Z" fill="#1D2361"/>
<path d="M85.2495 27.3744C84.8683 27.4912 84.7217 27.8126 84.9269 28.134C85.3375 28.7182 85.7188 29.3317 86.1 29.9452C86.3053 30.2666 86.7745 30.5003 87.185 30.4419C87.8302 30.3542 88.4754 30.2374 89.1205 30.179C89.5311 30.1205 89.707 29.7992 89.5018 29.4194C89.1205 28.7182 88.7099 28.0463 88.27 27.3744C88.0354 27.0238 87.5369 26.8193 87.1264 26.907C86.5105 27.053 85.8947 27.1991 85.2789 27.3452L85.2495 27.3744Z" fill="#1D2361"/>
<path d="M56.187 9.29064C56.9201 9.37829 57.6239 9.49514 58.3278 9.612C58.709 9.67043 59.1782 9.4367 59.4128 9.11534C59.7647 8.56027 60.1166 8.03443 60.4685 7.47936C60.7031 7.12879 60.5565 6.77823 60.1459 6.69059C59.3541 6.54452 58.5624 6.39845 57.7706 6.28159C57.36 6.22316 56.8615 6.48607 56.6855 6.83664C56.3923 7.39171 56.099 7.94679 55.8351 8.53107C55.6591 8.91085 55.8351 9.23221 56.2163 9.26142L56.187 9.29064Z" fill="#1D2361"/>
<path d="M40.3815 9.93172C41.0853 9.72722 41.7891 9.58113 42.4929 9.43506C42.8741 9.34742 43.2261 8.96765 43.314 8.55865C43.4313 7.91594 43.5486 7.30244 43.6659 6.65972C43.7539 6.25073 43.49 5.98781 43.0794 6.07545C42.2876 6.22152 41.5252 6.39681 40.7334 6.60131C40.3228 6.71816 39.9709 7.12716 39.9123 7.53616L39.7656 9.40586C39.7656 9.81486 40.0296 10.0486 40.3815 9.96091V9.93172Z" fill="#1D2361"/>
<path d="M36.7155 10.9833C37.39 10.7496 38.0938 10.4867 38.7683 10.2822C39.1496 10.1653 39.4721 9.75634 39.5015 9.34734C39.5601 8.70463 39.6188 8.06193 39.6774 7.41922C39.7361 7.01022 39.4135 6.77651 39.0322 6.89336C38.2698 7.12708 37.5073 7.36079 36.7449 7.62372C36.3343 7.76979 36.0117 8.20799 36.0117 8.61699C36.0117 9.2597 36.0117 9.8732 36.0117 10.5159C36.0117 10.9249 36.3343 11.1586 36.6862 11.0125L36.7155 10.9833Z" fill="#1D2361"/>
<path d="M33.1379 12.3884C33.7831 12.0671 34.4576 11.7749 35.1027 11.4828C35.4546 11.3367 35.7479 10.8693 35.7479 10.4895C35.7479 9.84678 35.7479 9.20408 35.7479 8.56137C35.7479 8.15237 35.4253 7.94787 35.0441 8.09394C34.3109 8.38608 33.5778 8.70743 32.8446 9.02879C32.4634 9.20407 32.1995 9.70072 32.2288 10.1097C32.2874 10.7232 32.3461 11.3659 32.4341 11.9794C32.4927 12.3884 32.8153 12.5637 33.1672 12.4176L33.1379 12.3884Z" fill="#1D2361"/>
<path d="M90.1762 38.0644C89.7657 38.0644 89.5311 38.3565 89.6484 38.7071C89.8536 39.4082 90.0589 40.0802 90.2642 40.7813C90.3522 41.1611 90.7627 41.5117 91.1733 41.5409C91.8185 41.6285 92.4343 41.7161 93.0794 41.8038C93.49 41.8622 93.754 41.5993 93.666 41.1903C93.49 40.4015 93.2847 39.6419 93.0501 38.8824C92.9328 38.4734 92.4929 38.152 92.0824 38.1228C91.4372 38.0936 90.8214 38.0644 90.1762 38.0352V38.0644Z" fill="#1D2361"/>
<path d="M28.8268 13.8197C28.9147 14.2287 29.2666 14.3748 29.5892 14.1703C30.205 13.7905 30.8209 13.4399 31.466 13.0893C31.818 12.914 32.0526 12.4174 31.9939 12.0376C31.9353 11.3949 31.8473 10.7522 31.7886 10.1095C31.7593 9.70049 31.4367 9.52521 31.0555 9.7005C30.3517 10.0511 29.6479 10.4601 28.944 10.8398C28.5921 11.0443 28.3576 11.5702 28.4162 11.95C28.5335 12.5635 28.6508 13.177 28.7974 13.7905L28.8268 13.8197Z" fill="#1D2361"/>
<path d="M52.5805 8.90902C53.1963 8.90902 53.7829 8.93825 54.3987 8.99668C54.7799 9.02589 55.2491 8.76295 55.4251 8.38316C55.7183 7.79888 56.0116 7.24382 56.3048 6.65954C56.5101 6.30897 56.3048 5.9584 55.8943 5.92918C55.1025 5.84154 54.3107 5.78312 53.5189 5.75391C53.1084 5.75391 52.6391 6.04604 52.4632 6.42582C52.3752 6.65953 52.2872 6.89325 52.1699 7.15617L52.5512 8.90902H52.5805Z" fill="#1D2361"/>
<path d="M44.5749 9.17259C45.2787 9.05573 46.0119 8.96809 46.7157 8.88045C47.0969 8.85124 47.5075 8.50065 47.6248 8.09166C47.8007 7.47816 47.9767 6.86467 48.182 6.25117C48.2993 5.87139 48.0647 5.55003 47.6541 5.60846C46.8623 5.66689 46.0705 5.75454 45.2788 5.8714C44.8682 5.92983 44.4577 6.30959 44.3697 6.71859L44.0177 8.58831C43.9591 8.99731 44.1937 9.26024 44.5749 9.20181V9.17259Z" fill="#1D2361"/>
<path d="M48.4166 8.85027C48.4166 8.85027 48.6218 8.85027 48.7391 8.85027L49.443 5.63672C49.0324 5.63672 48.5925 5.98729 48.4752 6.39629L47.9473 8.20756C47.83 8.58734 48.0647 8.9087 48.4459 8.87949L48.4166 8.85027Z" fill="#1D2361"/>
<path d="M92.991 42.0673L91.1142 41.8044C90.7036 41.7459 90.4397 42.0381 90.5277 42.3887C90.6743 43.0898 90.8209 43.7909 90.9382 44.5213C90.9969 44.9011 91.3781 45.2808 91.7887 45.3685C92.4338 45.5146 93.0497 45.6606 93.6655 45.8067C94.0761 45.8943 94.34 45.6606 94.2813 45.2516C94.164 44.4628 94.0467 43.6741 93.8708 42.8853C93.7828 42.4763 93.4016 42.0965 92.991 42.0381V42.0673Z" fill="#1D2361"/>
<path d="M82.6396 23.6052C83.2555 23.3715 83.842 23.167 84.4871 22.9625C84.8684 22.8457 84.9857 22.4659 84.6924 22.1445C84.1646 21.531 83.6367 20.9467 83.0795 20.3917C82.8743 20.158 82.5223 20.0703 82.1998 20.0703L80.6455 22.4659C80.9388 22.758 81.2027 23.0502 81.4959 23.3423C81.7599 23.6344 82.2877 23.7513 82.669 23.6052H82.6396Z" fill="#1D2361"/>
<path d="M25.5719 15.9216C25.6892 16.3014 26.0411 16.4475 26.3637 16.2138C26.9502 15.7756 27.5367 15.3666 28.1232 14.9576C28.4458 14.7531 28.6217 14.2564 28.5631 13.8474C28.4164 13.2339 28.2992 12.5912 28.1819 11.9485C28.0939 11.5395 27.7713 11.3935 27.4194 11.6272C26.7449 12.0654 26.0704 12.5036 25.4253 12.971C25.0734 13.2047 24.8974 13.7306 25.0147 14.1396C25.1907 14.7531 25.3666 15.3374 25.5719 15.9509V15.9216Z" fill="#1D2361"/>
<path d="M82.4051 80.3689C82.9329 79.7554 83.4315 79.1711 83.93 78.5284C84.194 78.207 84.2233 77.652 83.9887 77.3014L82.9623 75.7238C82.7277 75.3733 82.3465 75.3733 82.1119 75.6654C81.672 76.2497 81.2321 76.8048 80.7629 77.3598C80.6749 77.4767 80.6162 77.652 80.5869 77.7981L82.2878 80.4273C82.2878 80.4273 82.3464 80.3981 82.3758 80.3397L82.4051 80.3689Z" fill="#1D2361"/>
<path d="M18.2405 19.7187C18.0646 19.3389 17.6834 19.3097 17.4194 19.6311C16.8916 20.2154 16.393 20.8581 15.8945 21.4716C15.6306 21.7929 15.6012 22.348 15.8358 22.6986C16.1877 23.2244 16.5103 23.7503 16.8622 24.2761C17.0968 24.6267 17.4781 24.6267 17.7127 24.3346C18.1525 23.7503 18.5924 23.1952 19.0617 22.6401C19.2963 22.348 19.3549 21.8221 19.1496 21.4424C18.8564 20.8873 18.5338 20.303 18.2405 19.7187Z" fill="#1D2361"/>
<path d="M55.4546 90.6506C54.7508 90.7675 54.0177 90.8551 53.3139 90.9427C52.9326 91.0012 52.5221 91.3225 52.4048 91.7315C52.2288 92.345 52.0529 92.9585 51.8476 93.6012C51.7303 93.981 51.9649 94.3024 52.3755 94.244C53.1672 94.1563 53.959 94.0687 54.7508 93.9518C55.1614 93.8934 55.5719 93.5136 55.6599 93.1046L56.0118 91.2349C56.0704 90.8259 55.8066 90.563 55.4546 90.6214V90.6506Z" fill="#1D2361"/>
<path d="M71.2025 85.9775C71.1145 85.5685 70.7626 85.4224 70.4401 85.6269C69.8242 86.0067 69.2084 86.3573 68.5632 86.7079C68.2113 86.8831 67.9767 87.3798 68.0353 87.7888C68.094 88.4315 68.182 89.0742 68.2406 89.7169C68.27 90.1259 68.5926 90.3012 68.9738 90.1259C69.6776 89.7753 70.3814 89.3663 71.0852 88.9866C71.4371 88.7821 71.6717 88.2562 71.5838 87.8764C71.4665 87.2629 71.3491 86.6494 71.2025 86.0359V85.9775Z" fill="#1D2361"/>
<path d="M59.3844 89.9492C58.6806 90.1245 57.9767 90.2998 57.2729 90.4459C56.8917 90.5335 56.5398 90.9133 56.4518 91.3223C56.3345 91.965 56.2172 92.5785 56.0999 93.2212C56.012 93.6302 56.2759 93.8931 56.6864 93.8347C57.4782 93.6886 58.2407 93.5133 59.0325 93.338C59.443 93.2212 59.7949 92.8122 59.8536 92.4032L60.0295 90.5335C60.0589 90.1245 59.7656 89.8908 59.4137 89.9784L59.3844 89.9492Z" fill="#1D2361"/>
<path d="M66.6275 87.5254C65.9824 87.8468 65.3079 88.1389 64.6627 88.4018C64.3108 88.5479 64.0176 88.9861 64.0176 89.3951C64.0176 90.0378 64.0176 90.6805 64.0176 91.3233C64.0176 91.7323 64.3108 91.966 64.7214 91.7907C65.4545 91.4985 66.1876 91.2064 66.9208 90.8558C67.302 90.6805 67.566 90.2131 67.5366 89.8041C67.478 89.1614 67.4193 88.5479 67.3607 87.9344C67.302 87.5254 66.9795 87.3501 66.6275 87.4962V87.5254Z" fill="#1D2361"/>
<path d="M63.0495 88.8978C62.375 89.1315 61.7005 89.3652 60.9967 89.5989C60.6154 89.7158 60.2929 90.154 60.2635 90.5338C60.2049 91.1765 60.1462 91.8192 60.0876 92.4619C60.0289 92.8709 60.3222 93.1046 60.7327 92.9878C61.4952 92.7833 62.2576 92.5203 63.0201 92.2574C63.4307 92.1113 63.7532 91.6731 63.7532 91.2641C63.7532 90.6506 63.7532 90.0079 63.7532 89.3652C63.7532 88.9562 63.4307 88.7517 63.0788 88.8685L63.0495 88.8978Z" fill="#1D2361"/>
<path d="M51.7887 91.0039L51.1436 94.0422C51.3782 93.8961 51.5834 93.6916 51.6421 93.4579L52.1699 91.6466C52.2579 91.3252 52.1113 91.0623 51.818 91.0039H51.7887Z" fill="#1D2361"/>
<path d="M47.8012 93.6003C47.6545 93.9801 47.8598 94.3014 48.2703 94.3014C48.3876 94.3014 48.5343 94.3014 48.6516 94.3014L48.241 92.4609C48.0944 92.8407 47.9478 93.2497 47.7718 93.6295L47.8012 93.6003Z" fill="#1D2361"/>
<path d="M39.824 89.7767C39.1202 89.6307 38.4164 89.4554 37.7125 89.2509C37.3313 89.134 36.8328 89.3093 36.5982 89.6599C36.2169 90.1858 35.8064 90.6824 35.3958 91.179C35.1319 91.5004 35.2492 91.851 35.6598 91.997C36.4222 92.2307 37.1847 92.4352 37.9765 92.6105C38.387 92.6982 38.9149 92.4937 39.1202 92.1723L40.1466 90.5655C40.3518 90.215 40.2052 89.8644 39.8533 89.7767H39.824Z" fill="#1D2361"/>
<path d="M43.5781 90.5352C42.8449 90.4475 42.1411 90.3307 41.4373 90.2138C41.0561 90.1262 40.5869 90.3599 40.3523 90.7104C40.0003 91.2655 39.6484 91.7914 39.2965 92.3464C39.0619 92.697 39.2086 93.0476 39.6191 93.1352C40.4109 93.2813 41.2027 93.4273 41.9945 93.5442C42.405 93.6026 42.9036 93.3397 43.1089 92.9892C43.4021 92.4341 43.6954 91.879 43.9593 91.2947C44.1352 90.9149 43.9593 90.5936 43.5781 90.5644V90.5352Z" fill="#1D2361"/>
<path d="M92.816 58.6033L91.1738 57.6684C90.8219 57.4639 90.47 57.6392 90.4113 58.019C90.294 58.7201 90.1474 59.4505 90.0008 60.1516C89.9128 60.5314 90.1181 61.028 90.47 61.2618C90.9978 61.6123 91.5257 61.9921 92.0536 62.3719C92.3761 62.6056 92.7281 62.4887 92.8454 62.0797C93.0213 61.291 93.1973 60.5314 93.3439 59.7426C93.4025 59.3336 93.1973 58.837 92.8454 58.6325L92.816 58.6033Z" fill="#1D2361"/>
<path d="M90.2348 61.6125C89.8829 61.3788 89.531 61.4957 89.443 61.8754C89.2671 62.5766 89.0325 63.2485 88.8272 63.9496C88.7099 64.3002 88.8272 64.8261 89.1791 65.089C89.6777 65.498 90.1762 65.9362 90.6454 66.3452C90.968 66.6081 91.3199 66.5205 91.4665 66.1407C91.7304 65.3811 91.965 64.6216 92.1996 63.862C92.317 63.453 92.141 62.9272 91.7891 62.6934L90.2348 61.6125Z" fill="#1D2361"/>
<path d="M36.1585 88.6647C35.484 88.4602 34.7802 88.1973 34.1057 87.9636C33.7538 87.8175 33.2259 87.9636 32.962 88.2557C32.5221 88.7231 32.0822 89.1906 31.613 89.658C31.3198 89.9501 31.4078 90.3299 31.789 90.476C32.5221 90.7681 33.2846 91.0603 34.0471 91.3232C34.4283 91.4693 34.9855 91.3232 35.2201 90.9726L36.3638 89.4827C36.5984 89.1613 36.5104 88.7815 36.1291 88.6647H36.1585Z" fill="#1D2361"/>
<path d="M93.4307 54.6007C92.8442 54.3378 92.287 54.0748 91.7005 53.8411C91.3193 53.6658 90.9967 53.8411 90.9674 54.2501C90.9087 54.9805 90.8501 55.6816 90.7621 56.412C90.7034 56.7917 90.9674 57.2592 91.3193 57.4637C91.8765 57.785 92.4336 58.1064 92.9908 58.4277C93.3427 58.6322 93.6947 58.4862 93.7533 58.0772C93.8706 57.2884 93.9586 56.4996 94.0465 55.7108C94.0759 55.3018 93.812 54.8052 93.4307 54.6299V54.6007Z" fill="#1D2361"/>
<path d="M22.5221 18.3172C22.6687 18.697 23.0499 18.7846 23.3432 18.5217C23.871 18.025 24.4283 17.5576 24.9854 17.1194C25.2787 16.8857 25.4253 16.3598 25.308 15.9801C25.1027 15.3666 24.9268 14.7531 24.7508 14.1104C24.6335 13.7014 24.2816 13.5845 23.959 13.8474C23.3139 14.3441 22.698 14.8407 22.1115 15.3666C21.7889 15.6295 21.6717 16.1846 21.8183 16.5643L22.5221 18.3172Z" fill="#1D2361"/>
<path d="M87.3902 68.8003C87.097 68.5082 86.7451 68.5666 86.5691 68.9172C86.2465 69.5599 85.9239 70.2026 85.572 70.8453C85.3961 71.1959 85.4547 71.7217 85.6894 72.0431C86.0999 72.5397 86.5105 73.0364 86.8917 73.5623C87.1556 73.8836 87.5369 73.8544 87.7421 73.5038C88.1527 72.8027 88.5339 72.1016 88.8858 71.4004C89.0911 71.0206 89.0031 70.4655 88.7099 70.1734C88.27 69.706 87.8301 69.2678 87.3902 68.8296V68.8003Z" fill="#1D2361"/>
<path d="M77.5071 81.4181C77.3604 81.0383 76.9792 80.9507 76.686 81.2136C76.1581 81.6811 75.6009 82.1777 75.0437 82.6159C74.7505 82.8496 74.6039 83.3755 74.7212 83.7553C74.9264 84.3688 75.1024 84.9823 75.2783 85.625C75.3957 86.0048 75.7476 86.1508 76.0702 85.8879C76.7153 85.3913 77.3018 84.8946 77.9176 84.3688C78.2402 84.1058 78.3575 83.5508 78.2109 83.171C77.9763 82.5867 77.7417 82.0024 77.4778 81.4181H77.5071Z" fill="#1D2361"/>
<path d="M85.2199 72.5388C84.9559 72.2174 84.5747 72.2466 84.3987 72.5388C84.0175 73.1523 83.6069 73.7658 83.1964 74.35C82.9911 74.6714 82.9618 75.1973 83.1964 75.5478C83.5483 76.0737 83.9002 76.6288 84.2521 77.1838C84.4574 77.5344 84.8386 77.5636 85.1026 77.213C85.5718 76.5703 86.0116 75.8984 86.4515 75.2265C86.6861 74.8759 86.6568 74.3208 86.3929 73.9995L85.2199 72.5096V72.5388Z" fill="#1D2361"/>
<path d="M74.457 83.8448C74.3397 83.465 73.9877 83.3482 73.6652 83.5527C73.0786 83.9909 72.4922 84.3999 71.9057 84.8089C71.5831 85.0134 71.3778 85.51 71.4657 85.919C71.583 86.5617 71.7297 87.1752 71.847 87.818C71.935 88.227 72.2575 88.373 72.6094 88.1393C73.2839 87.7011 73.9584 87.2629 74.6036 86.7955C74.9555 86.5618 75.1315 86.0067 75.0142 85.6269C74.8382 85.0134 74.6622 84.4291 74.457 83.8156V83.8448Z" fill="#1D2361"/>
<path d="M88.9736 65.2662C88.651 65.0032 88.2991 65.0909 88.1525 65.4415C87.9179 66.1134 87.6246 66.7853 87.3314 67.4572C87.1847 67.8078 87.2727 68.3336 87.566 68.6258C88.0352 69.0932 88.475 69.5606 88.9149 70.0281C89.1789 70.3202 89.5894 70.2618 89.736 69.882C90.0586 69.1516 90.3812 68.4213 90.6745 67.6909C90.8211 67.3111 90.6745 66.7561 90.3812 66.4932L88.9443 65.2662H88.9736Z" fill="#1D2361"/>
<path d="M7.06686 41.3956L8.70908 42.3304C9.06099 42.5349 9.41288 42.3596 9.47153 41.9798C9.58883 41.2787 9.70613 40.5484 9.88208 39.8472C9.97006 39.4674 9.76477 38.9708 9.41286 38.7371C8.885 38.3865 8.35716 38.0067 7.82931 37.6269C7.50672 37.3932 7.12548 37.5101 7.0375 37.9191C6.86155 38.7078 6.6856 39.4674 6.53897 40.2562C6.451 40.6652 6.68563 41.1618 7.06686 41.3663V41.3956Z" fill="#1D2361"/>
<path d="M6.45188 45.3993C7.00906 45.6622 7.59556 45.9251 8.18207 46.1589C8.5633 46.3049 8.88588 46.1589 8.91521 45.7499C8.97386 45.0195 9.03253 44.3184 9.12051 43.588C9.17916 43.2082 8.91522 42.7408 8.56332 42.5363C8.00613 42.215 7.44894 41.8936 6.86243 41.5722C6.51053 41.3677 6.15864 41.5138 6.09999 41.9228C5.98268 42.7116 5.89469 43.5004 5.80671 44.2892C5.77739 44.6982 6.07066 45.1948 6.42257 45.3409L6.45188 45.3993Z" fill="#1D2361"/>
<path d="M32.4928 87.1765C31.8183 86.8844 31.1732 86.5922 30.528 86.2709C30.1761 86.0956 29.6482 86.1832 29.355 86.4462C28.8857 86.8844 28.3872 87.2934 27.8887 87.7024C27.5661 87.9653 27.6247 88.3451 27.9767 88.5496C28.6805 88.9294 29.4136 89.2799 30.1174 89.6013C30.4987 89.7766 31.0558 89.6597 31.3198 89.3676L32.6101 87.9945C32.874 87.7024 32.8154 87.3226 32.4635 87.1765H32.4928Z" fill="#1D2361"/>
<path d="M9.70634 38.126C10.0582 38.3597 10.4102 38.2429 10.4981 37.8631C10.7034 37.1619 10.9087 36.49 11.114 35.7889C11.2313 35.4383 11.114 34.9125 10.7621 34.6495C10.2635 34.2405 9.79432 33.8023 9.29579 33.3933C8.97321 33.1304 8.6213 33.218 8.47468 33.5978C8.21075 34.3574 7.94682 35.1169 7.74154 35.8765C7.62424 36.2855 7.8002 36.8114 8.12278 37.0451L9.67703 38.126H9.70634Z" fill="#1D2361"/>
<path d="M10.9967 34.4448C11.3193 34.7077 11.6712 34.6201 11.8178 34.2695C12.0817 33.5976 12.3457 32.9256 12.6389 32.2829C12.7855 31.9324 12.6976 31.4065 12.4043 31.1144C11.9644 30.647 11.4952 30.1795 11.0553 29.7121C10.7914 29.42 10.4101 29.4784 10.2342 29.8582C9.91161 30.5885 9.58906 31.3189 9.2958 32.0492C9.14917 32.429 9.29582 32.9841 9.58907 33.247L11.026 34.474L10.9967 34.4448Z" fill="#1D2361"/>
<path d="M14.6036 27.4314C14.8676 27.7528 15.2488 27.7236 15.4541 27.4314C15.8353 26.8179 16.2165 26.2044 16.6271 25.6201C16.8324 25.2988 16.8324 24.7729 16.6271 24.4224C16.2752 23.8965 15.9233 23.3414 15.5714 22.7864C15.3661 22.4358 14.9556 22.4358 14.721 22.7864C14.2517 23.4291 13.8118 24.101 13.372 24.7729C13.1374 25.1235 13.1667 25.6786 13.4306 25.9999L14.6036 27.4606V27.4314Z" fill="#1D2361"/>
<path d="M12.5809 30.9375C12.8741 31.2296 13.2554 31.1712 13.402 30.8206C13.7246 30.1779 14.0472 29.5352 14.3991 28.8925C14.5751 28.5419 14.5164 28.0161 14.2818 27.6947C13.8712 27.1981 13.4606 26.7014 13.0794 26.1756C12.8155 25.8542 12.4343 25.8542 12.229 26.234C11.8184 26.9351 11.4372 27.6071 11.0853 28.3374C10.9094 28.7172 10.968 29.2723 11.2612 29.5644L12.5809 30.9083V30.9375Z" fill="#1D2361"/>
<path d="M8.06498 46.4224C7.47847 46.1594 6.89194 45.8965 6.30543 45.6336C5.9242 45.4583 5.60162 45.6336 5.57229 46.0718C5.54297 46.7145 5.543 47.3572 5.51367 47.9999L8.68079 47.328C8.65146 46.9774 8.38753 46.5977 8.03562 46.4516L8.06498 46.4224Z" fill="#1D2361"/>
<path d="M6.89118 57.6385L8.76801 57.9014C9.17857 57.9599 9.44254 57.6677 9.35456 57.3171C9.20793 56.616 9.06131 55.9149 8.944 55.1845C8.88535 54.8047 8.50412 54.4249 8.12289 54.3373C7.47773 54.1912 6.8619 54.0452 6.24606 53.8699C5.8355 53.7822 5.57155 54.0159 5.63021 54.4249C5.74751 55.2137 5.86482 56.0025 6.01145 56.7913C6.09943 57.2003 6.48062 57.5801 6.89118 57.6385Z" fill="#1D2361"/>
<path d="M25.8943 84.1359C26.2169 83.9021 26.2169 83.5224 25.8943 83.3179C25.3078 82.9089 24.692 82.4999 24.1348 82.0617C23.8122 81.8279 23.2843 81.7987 22.9324 82.0325C22.3752 82.3538 21.8181 82.7044 21.2609 83.0257C20.909 83.2302 20.8796 83.61 21.2022 83.8729C21.8181 84.3696 22.4632 84.837 23.1377 85.3044C23.4896 85.5381 24.0468 85.5381 24.3694 85.3044C24.8679 84.9539 25.3958 84.5741 25.8943 84.1943V84.1359Z" fill="#1D2361"/>
<path d="M15.3077 76.5112C15.9236 76.3067 16.5101 76.1022 17.0966 75.8685C17.4778 75.7224 17.5951 75.3719 17.3312 75.0797C16.862 74.5247 16.4221 73.9696 15.9822 73.3853C15.7476 73.0639 15.2491 72.9179 14.8385 73.0055C14.2227 73.1808 13.5775 73.3269 12.9617 73.473C12.5511 73.5606 12.4338 73.9112 12.6684 74.2617C13.1376 74.9044 13.6068 75.5472 14.1054 76.1607C14.3693 76.482 14.8971 76.6281 15.2784 76.5112H15.3077Z" fill="#1D2361"/>
<path d="M29.1493 86.2115C29.4425 85.9485 29.4132 85.5687 29.0906 85.3934C28.4454 85.0429 27.8296 84.6923 27.2138 84.3125C26.8912 84.108 26.3633 84.1372 26.0114 84.371C25.4836 84.7507 24.9557 85.1305 24.4279 85.5103C24.076 85.744 24.1053 86.1238 24.4279 86.3575C25.1023 86.7957 25.7768 87.2047 26.4806 87.6137C26.8325 87.8182 27.3897 87.7598 27.7123 87.4969C28.1815 87.0879 28.68 86.6789 29.1199 86.2407L29.1493 86.2115Z" fill="#1D2361"/>
<path d="M9.7068 61.6713C10.1174 61.6713 10.3519 61.3791 10.2346 61.0285C10.0294 60.3274 9.82409 59.6555 9.64814 58.9543C9.56016 58.5746 9.14961 58.224 8.73906 58.1948C8.09389 58.1071 7.44875 58.0195 6.83291 57.9026C6.42236 57.8442 6.15844 58.1071 6.24641 58.5161C6.42237 59.2757 6.62762 60.0645 6.86222 60.824C6.97953 61.233 7.41941 61.5836 7.82997 61.5836C8.44581 61.6128 9.09095 61.642 9.73611 61.6713H9.7068Z" fill="#1D2361"/>
<path d="M11.114 65.7304C11.5245 65.7012 11.7298 65.3798 11.5832 65.0293C11.2899 64.3573 11.026 63.7146 10.7914 63.0135C10.6741 62.6629 10.2049 62.3415 9.79431 62.3415C9.14915 62.3415 8.50398 62.3123 7.85882 62.2539C7.44826 62.2539 7.21366 62.5168 7.36029 62.9258C7.62422 63.6854 7.9175 64.4158 8.21076 65.1753C8.38671 65.5551 8.82656 65.8473 9.23712 65.8473C9.88228 65.818 10.4981 65.7888 11.1433 65.7304H11.114Z" fill="#1D2361"/>
<path d="M12.7566 69.2684C13.1672 69.21 13.3138 68.8594 13.1379 68.5381C12.786 67.8954 12.4634 67.2526 12.1408 66.6099C11.9649 66.2594 11.4957 65.9964 11.0851 66.0257C10.4399 66.0549 9.79478 66.1133 9.14961 66.1133C8.73906 66.1133 8.5338 66.4639 8.70975 66.8144C9.03233 67.5448 9.38424 68.2459 9.76547 68.9471C9.97075 69.3269 10.4693 69.5606 10.8798 69.5021C11.4956 69.4145 12.1408 69.3269 12.7566 69.21V69.2684Z" fill="#1D2361"/>
<path d="M12.8735 73.0633C13.4894 72.9173 14.1052 72.7712 14.7211 72.5959C15.1316 72.479 15.2489 72.1577 15.0436 71.8363C14.6331 71.252 14.2518 70.6386 13.8706 70.0251C13.6653 69.7037 13.1961 69.47 12.7856 69.5576C12.1404 69.6453 11.4952 69.7621 10.8501 69.8498C10.4395 69.9082 10.2635 70.2588 10.4688 70.6093C10.8501 71.3105 11.2899 71.9824 11.7005 72.6543C11.9058 73.0049 12.463 73.2094 12.8442 73.1218L12.8735 73.0633Z" fill="#1D2361"/>
<path d="M68.3867 42.4495L72.8735 43.4136L83.1081 36.3438L70.9087 38.564L68.3867 42.4495Z" fill="#1D2361"/>
<path d="M72.3165 56.6445L68.2695 57.5502L71.1141 61.9323L83.1669 64.0357L72.3165 56.6445Z" fill="#1D2361"/>
<path d="M38.7092 28.6014L43.2253 31.5228L44.0757 27.6666L36.5391 16.8281L38.7092 28.6014Z" fill="#1D2361"/>
<path d="M58.2987 31.5227L62.8148 28.572L64.8969 16.7695L57.4482 27.6664L58.2987 31.5227Z" fill="#1D2361"/>
<path d="M42.3464 67.4258L37.8302 70.3472L35.6602 82.1205L43.1968 71.282L42.3464 67.4258Z" fill="#1D2361"/>
<path d="M62.0824 71.2847L57.5663 68.3633L56.7158 72.1903L64.1938 83.0872L62.0824 71.2847Z" fill="#1D2361"/>
<path d="M27.5072 42.652L31.9646 41.6588L29.4426 37.8025L17.2139 35.6406L27.5072 42.652Z" fill="#1D2361"/>
<path d="M31.4959 56.7355L27.0091 55.7422L16.7158 62.7536L28.9446 60.5917L31.4959 56.7355Z" fill="#1D2361"/>
</svg>
