<svg width="14" height="14" viewBox="0 0 14 14" fill="none" xmlns="http://www.w3.org/2000/svg">
<path d="M2.20711 0.292893C1.81658 -0.0976309 1.18342 -0.0976312 0.792893 0.292893C0.402369 0.683418 0.402369 1.31658 0.792893 1.70711L5.74264 6.65685L0.792893 11.6066C0.402369 11.9971 0.402369 12.6303 0.792893 13.0208C1.18342 13.4113 1.81658 13.4113 2.20711 13.0208L7.15685 8.07107L12.1066 13.0208C12.4971 13.4113 13.1303 13.4113 13.5208 13.0208C13.9113 12.6303 13.9113 11.9971 13.5208 11.6066L8.57107 6.65685L13.5208 1.70711C13.9113 1.31658 13.9113 0.683418 13.5208 0.292893C13.1303 -0.0976309 12.4971 -0.0976306 12.1066 0.292893L7.15685 5.24264L2.20711 0.292893Z" fill="white"/>
</svg>
