<svg width="117" height="96" viewBox="0 0 117 96" fill="none" xmlns="http://www.w3.org/2000/svg">
<g clip-path="url(#clip0_20_1291)">
<path d="M62.1537 13.9305H61.3908V16.6904H60.2666V10.2539H61.3908V12.9541H62.0132L63.9203 10.2539H65.2955L63.0671 13.3327L65.4862 16.6904H64.1311L62.1537 13.9305Z" fill="white"/>
<path d="M68.6886 13.6121L69.9834 10.2443H71.2381L68.9796 15.5849L68.7789 15.9834C68.4778 16.5115 68.006 16.7705 67.3335 16.7705L66.8717 16.7407V15.8539C66.952 15.8639 67.0825 15.8738 67.2632 15.8738C67.5844 15.8738 67.8052 15.7343 67.9357 15.4653L68.1666 14.9173L65.9482 10.2344H67.1728L68.6785 13.6021L68.6886 13.6121Z" fill="white"/>
<path d="M76.7682 10.2539V16.6904H75.644V11.1606H73.6565L73.5361 13.6515C73.4959 14.4287 73.3955 15.0365 73.245 15.4649C73.0944 15.8933 72.8836 16.2022 72.6026 16.4015C72.3215 16.6008 71.9501 16.7004 71.4783 16.7004H71.1973V15.8037H71.3779C71.6389 15.7638 71.8397 15.6741 71.9802 15.5247C72.1207 15.3653 72.2312 15.1361 72.3014 14.8173C72.3717 14.4984 72.4219 14.0301 72.452 13.4224L72.5724 10.2738H76.7481L76.7682 10.2539Z" fill="white"/>
<path d="M79.2275 12.7171H80.5525C81.0242 12.7171 81.4458 12.7968 81.7971 12.9562C82.1485 13.1156 82.4195 13.3448 82.6002 13.6437C82.7808 13.9426 82.8812 14.2814 82.8812 14.6799C82.8812 15.2777 82.6805 15.766 82.2689 16.1247C81.8574 16.4933 81.2952 16.6727 80.5926 16.6826H78.1133V10.2461H79.2375V12.7071L79.2275 12.7171ZM79.2275 13.6238V15.8058H80.5525C80.9339 15.8058 81.225 15.7062 81.4458 15.497C81.6566 15.2877 81.767 15.0187 81.767 14.6799C81.767 14.3412 81.6666 14.102 81.4559 13.9127C81.2451 13.7234 80.964 13.6238 80.5926 13.6238H79.2375H79.2275Z" fill="white"/>
<path d="M87.7194 11.1528H85.7018V16.6826H84.5876V11.1528H82.5801V10.2461H87.7194V11.1528Z" fill="white"/>
<path d="M91.1427 13.6121L92.4375 10.2443H93.6922L91.4337 15.5849L91.233 15.9834C90.9419 16.5115 90.4601 16.7705 89.7875 16.7705L89.3258 16.7407V15.8539C89.4061 15.8639 89.5366 15.8738 89.7173 15.8738C90.0385 15.8738 90.2593 15.7343 90.3898 15.4653L90.6207 14.9173L88.4023 10.2344H89.6269L91.1326 13.6021L91.1427 13.6121Z" fill="white"/>
<path d="M95.6897 14.3013V16.6826H94.5654V10.2461H97.0448C97.7675 10.2461 98.3396 10.4354 98.7712 10.8041C99.2029 11.1827 99.4137 11.6709 99.4137 12.2886C99.4137 12.9064 99.2029 13.4145 98.7913 13.7633C98.3697 14.112 97.7875 14.2913 97.0347 14.2913H95.6897V14.3013ZM95.6897 13.4046H97.0448C97.4463 13.4046 97.7474 13.3149 97.9582 13.1256C98.169 12.9363 98.2694 12.6673 98.2694 12.3185C98.2694 11.9698 98.1589 11.6908 97.9481 11.4816C97.7374 11.2724 97.4362 11.1628 97.0648 11.1628H95.6796V13.4046H95.6897Z" fill="white"/>
<path d="M103.58 15.1881H101.07L100.548 16.6826H99.374L101.823 10.2461H102.837L105.286 16.6826H104.112L103.58 15.1881ZM101.382 14.2814H103.259L102.315 11.6111L101.372 14.2814H101.382Z" fill="white"/>
<path d="M79.7799 48.3633C79.3182 48.3633 79.0371 48.6124 79.0371 49.26V54.1821C79.0371 54.8297 79.3282 55.0788 79.7799 55.0788C80.2316 55.0788 80.5227 54.8297 80.5227 54.1821V49.26C80.5227 48.6124 80.2316 48.3633 79.7799 48.3633Z" fill="white"/>
<path d="M74.5605 48.4727H73.8779V51.5514H74.5605C75.0222 51.5514 75.2732 51.3422 75.2732 50.6946V49.3295C75.2732 48.6819 75.0222 48.4727 74.5605 48.4727Z" fill="white"/>
<path d="M78.194 37.4453C77.7322 37.4453 77.4512 37.6944 77.4512 38.342V43.2541C77.4512 43.9018 77.7423 44.1509 78.194 44.1509C78.6457 44.1509 78.9368 43.9018 78.9368 43.2541V38.342C78.9368 37.6944 78.6457 37.4453 78.194 37.4453Z" fill="white"/>
<path d="M42.9621 26.9336L42.2695 31.5368H43.6648L42.9621 26.9336Z" fill="white"/>
<path d="M61.2102 32.3323V27.4202C61.2102 26.7725 60.9191 26.5234 60.4674 26.5234C60.0157 26.5234 59.7246 26.7725 59.7246 27.4202V32.3323C59.7246 32.9799 60.0157 33.229 60.4674 33.229C60.9191 33.229 61.2102 32.9799 61.2102 32.3323Z" fill="white"/>
<path d="M82.8223 33.1296H83.5048C83.9666 33.1296 84.2175 32.9203 84.2175 32.2727V30.9077C84.2175 30.26 83.9666 30.0508 83.5048 30.0508H82.8223V33.1296Z" fill="white"/>
<path d="M70.9668 31.5368H72.362L71.6594 26.9336L70.9668 31.5368Z" fill="white"/>
<path d="M73.687 39.7766V38.4116C73.687 37.7639 73.436 37.5547 72.9843 37.5547H72.3018V40.6335H72.9843C73.4461 40.6335 73.687 40.4242 73.687 39.7766Z" fill="white"/>
<path d="M93.8135 33.1296H94.496C94.9578 33.1296 95.1987 32.9203 95.1987 32.2727V30.9077C95.1987 30.26 94.9477 30.0508 94.496 30.0508H93.8135V33.1296Z" fill="white"/>
<path d="M100.137 43.1907V41.8256C100.137 41.178 99.8862 40.9688 99.4345 40.9688H98.752V44.0475H99.4345C99.8963 44.0475 100.137 43.8383 100.137 43.1907Z" fill="white"/>
<path d="M116.087 0H35.3131C34.9417 0 34.6004 0.229165 34.4599 0.577893L0.0705471 94.7545C0.0504716 94.8143 0.0404338 94.8741 0.0303961 94.9239C0.0303961 94.9438 0.0203583 94.9638 0.0103206 94.9837C0.000282848 95.0634 0.0103206 95.1531 0.0103206 95.2328C0.0103206 95.2527 0.0203583 95.2826 0.0303961 95.3026C0.0404338 95.3623 0.0605093 95.4121 0.0906226 95.462C0.10066 95.4919 0.120736 95.5118 0.130774 95.5317C0.160887 95.5815 0.180962 95.6214 0.221113 95.6612C0.241189 95.6812 0.261264 95.7111 0.28134 95.731C0.321491 95.7609 0.351604 95.7908 0.391755 95.8207C0.421868 95.8406 0.441944 95.8605 0.472057 95.8705C0.522246 95.9004 0.572434 95.9203 0.632661 95.9402C0.652736 95.9402 0.672812 95.9601 0.692887 95.9601C0.763152 95.9801 0.843454 95.99 0.923756 95.99C0.923756 95.99 0.923756 95.99 0.933793 95.99C1.03417 95.99 1.13455 95.9701 1.23493 95.9402L105.387 58.3174C105.748 58.1879 105.989 57.8491 105.989 57.4605V36.9652L116.488 31.0568C116.8 30.9073 117 30.5885 117 30.2398V0.906694C117 0.408511 116.589 0 116.087 0ZM38.1337 29.2235V25.3177H39.5992V34.4245H38.1337V30.5187H36.4975V34.4245H35.0521V25.3177H36.4975V29.2235H38.1337ZM40.5126 34.4245L41.9781 25.3177H44.0861L45.5516 34.4245H44.0961L43.8452 32.7705H42.0785L41.8276 34.4245H40.5026H40.5126ZM49.5466 33.1193V25.3177H51.0121V33.1491H51.6445V35.65H50.2392V34.4245H46.465V25.3177H47.9105V33.1193H49.5466ZM54.445 29.074L55.6194 25.3177H57.2054V34.4245H55.9105V28.0179L55.3183 30.2497L54.1138 34.4245H52.6282V25.3177H53.913V31.0767L54.435 29.074H54.445ZM58.2795 32.2325V27.4997C58.2795 26.045 59.0524 25.2081 60.4677 25.2081C61.883 25.2081 62.6559 26.045 62.6559 27.4997V32.2325C62.6559 33.6872 61.883 34.5241 60.4677 34.5241C59.0524 34.5241 58.2795 33.6872 58.2795 32.2325ZM66.8115 29.2135V25.3077H68.277V34.4145H66.8115V30.5088H65.1754V34.4145H63.73V25.3077H65.1754V29.2135H66.8115ZM69.7024 45.3447H68.2369V37.5431H66.6007V45.3447H65.1553V36.2379H69.7024V45.3447ZM70.5355 34.4245H69.2106L70.6761 25.3177H72.784L74.2495 34.4245H72.794L72.5431 32.7705H70.7765L70.5255 34.4245H70.5355ZM72.2921 45.3447H70.8467V36.2379H72.9647C74.4101 36.2379 75.1128 37.035 75.1128 38.4897V39.6754C75.1128 41.13 74.4101 41.9271 72.9647 41.9271H72.2821V45.3447H72.2921ZM80.2019 34.4245H78.7364V26.6229H77.4817L77.3211 32.1229C77.2709 33.7868 76.6686 34.4345 75.2232 34.4345H75.0023V33.1392C75.6548 33.1392 75.8656 33.0495 75.8957 32.2026L76.1366 25.3277H80.2119V34.4345L80.2019 34.4245ZM80.3725 38.4299V43.1626C80.3725 44.6173 79.5996 45.4543 78.1843 45.4543C76.769 45.4543 75.9961 44.6173 75.9961 43.1626V38.4299C75.9961 36.9752 76.769 36.1382 78.1843 36.1382C79.5996 36.1382 80.3725 36.9752 80.3725 38.4299ZM76.6987 50.6055C76.6987 52.0602 75.9961 52.8573 74.5506 52.8573H73.8681V56.2748H72.4226V47.168H74.5406C75.986 47.168 76.6887 47.9651 76.6887 49.4198V50.6055H76.6987ZM81.9585 54.0928C81.9585 55.5475 81.1856 56.3844 79.7703 56.3844C78.3549 56.3844 77.582 55.5475 77.582 54.0928V49.36C77.582 47.9053 78.3549 47.0684 79.7703 47.0684C81.1856 47.0684 81.9585 47.9053 81.9585 49.36V54.0928ZM83.5043 28.7452C84.9498 28.7452 85.6524 29.5423 85.6524 30.997V32.1827C85.6524 33.6374 84.9498 34.4345 83.5043 34.4345H81.3864V25.3277H82.8318V28.7452H83.5144H83.5043ZM84.8795 40.0839V41.3891H82.902V44.0594H85.3914V45.3546H81.4566V36.2478H85.3914V37.5431H82.902V40.0839H84.8795ZM87.2584 50.2368H85.8933V49.2604C85.8933 48.6128 85.6022 48.3637 85.1405 48.3637C84.6787 48.3637 84.3977 48.6128 84.3977 49.2604V54.1825C84.3977 54.8301 84.6888 55.0692 85.1405 55.0692C85.5922 55.0692 85.8933 54.8401 85.8933 54.1825V52.8772H87.2584V54.0828C87.2584 55.5375 86.5257 56.3745 85.1104 56.3745C83.695 56.3745 82.9623 55.5375 82.9623 54.0828V49.3501C82.9623 47.8954 83.695 47.0584 85.1104 47.0584C86.5257 47.0584 87.2584 47.8954 87.2584 49.3501V50.2368ZM87.8707 45.3447H86.4253V36.2379H87.8707V40.2034L89.7578 36.2379H91.1932L89.1857 40.2931L91.1932 45.3347H89.7177L88.3124 41.7079L87.8707 42.5349V45.3347V45.3447ZM89.7578 29.2135V25.3077H91.2233V34.4145H89.7578V30.5088H88.1217V34.4145H86.6863V25.3077H88.1217V29.2135H89.7578ZM92.5283 50.2269H91.1631V49.2504C91.1631 48.6028 90.872 48.3537 90.4203 48.3537C89.9686 48.3537 89.6775 48.6028 89.6775 49.2504V54.1725C89.6775 54.8201 89.9686 55.0593 90.4203 55.0593C90.872 55.0593 91.1631 54.8301 91.1631 54.1725V52.8673H92.5283V54.0729C92.5283 55.5276 91.7955 56.3645 90.3802 56.3645C88.9649 56.3645 88.2321 55.5276 88.2321 54.0729V49.3401C88.2321 47.8854 88.9649 47.0485 90.3802 47.0485C91.7955 47.0485 92.5283 47.8854 92.5283 49.3401V50.2269ZM91.926 37.5332V36.2379H96.3827V37.5332H94.8771V45.3347H93.4316V37.5332H91.926ZM94.4856 28.7253C95.921 28.7253 96.6337 29.5224 96.6337 30.9771V32.1627C96.6337 33.6174 95.921 34.4145 94.4856 34.4145H92.3576V25.3077H93.803V28.7253H94.4856ZM98.1193 56.2549H96.8244V49.8483L96.2322 52.0901L95.0276 56.2649H93.5521V47.1581H94.8369V52.9171L95.3589 50.9144L96.5333 47.1581H98.1193V56.2649V56.2549ZM98.7316 36.2279V39.6455H99.4141C100.86 39.6455 101.562 40.4426 101.562 41.8973V43.0829C101.562 44.5376 100.86 45.3347 99.4141 45.3347H97.2962V36.2279H98.7416H98.7316ZM97.4568 34.4046V25.2978H98.9022V34.4046H97.4568ZM103.831 56.2549H102.536V49.8483L101.944 52.0901L100.739 56.2649H99.2535V47.1581H100.538V52.9171L101.06 50.9144L102.235 47.1581H103.821V56.2649L103.831 56.2549ZM103.831 45.3347H102.395V36.2279H103.831V45.3347ZM103.991 26.603H101.502V29.1437H103.479V30.439H101.502V33.1093H103.991V34.4145H100.057V25.3077H103.991V26.613V26.603ZM116.318 30.2198C116.318 30.3095 116.268 30.3992 116.187 30.439H116.167L116.147 30.459L105.979 36.1881V24.401C105.979 23.9029 105.567 23.4943 105.065 23.4943H34.1186C33.7572 23.4943 33.436 23.7036 33.2855 24.0224L3.28263 87.8995L35.0822 0.817021C35.1224 0.727348 35.2027 0.667566 35.3131 0.667566H116.087C116.217 0.667566 116.328 0.777167 116.328 0.906694V30.2398L116.318 30.2198Z" fill="white"/>
</g>
<defs>
<clipPath id="clip0_20_1291">
<rect width="117" height="96" fill="white"/>
</clipPath>
</defs>
</svg>
