<svg width="63" height="79" viewBox="0 0 63 79" fill="none" xmlns="http://www.w3.org/2000/svg">
<path d="M2.51104 61.3617C4.11024 59.725 5.669 58.125 7.24798 56.5085C7.15607 56.4552 7.06784 56.413 6.99063 56.3579C6.64874 56.1191 6.28111 55.9078 5.97413 55.6305C4.908 54.6679 4.67639 53.4996 5.25174 52.1587C5.59915 51.3486 6.16714 50.713 6.88402 50.2097C7.27004 49.9396 7.2829 49.5318 6.90608 49.2379C6.72778 49.0983 6.51823 49.0432 6.29213 49.0304C5.78848 49.001 5.30688 49.1222 4.82712 49.2361C4.05877 49.4198 3.29042 49.6053 2.53861 49.8404C2.00371 50.0076 1.49454 50.2593 1.15632 50.7534C0.939414 50.0921 1.55336 49.0799 2.54413 48.4885C2.23715 48.1156 1.85298 47.919 1.38425 47.8253C0.926547 47.7335 0.492742 47.8731 0.00195312 47.9172C0.375099 47.3496 0.816258 46.9234 1.40447 46.6736C2.0129 46.4146 2.6489 46.3429 3.31064 46.4127C4.48339 46.5395 5.61937 46.8462 6.77006 47.0722C7.50532 47.2155 8.24058 47.3606 8.99423 47.3036C9.16702 47.2908 9.34348 47.2504 9.5034 47.1842C9.77912 47.0722 9.83611 46.8297 9.65413 46.5983C9.5806 46.5046 9.4795 46.4311 9.38576 46.3539C8.88026 45.9443 8.3619 45.5622 7.74796 45.3161C7.32886 45.1489 6.941 44.9138 6.61381 44.5923C6.21861 44.2029 6.1653 43.9347 6.40794 43.4406C6.68182 42.8785 7.09173 42.4137 7.55495 42.0041C7.99978 41.611 8.47035 41.2473 8.93173 40.8689C9.45928 40.4353 9.98867 40.0037 10.5162 39.5701C10.7607 39.3681 10.8783 39.392 10.9923 39.7024C11.0861 39.9596 11.1541 40.2259 11.2368 40.4868C11.5897 41.5944 11.9445 42.7003 12.2992 43.808C12.4206 44.1845 12.643 44.4692 13.0253 44.6052C13.097 44.6309 13.1705 44.6548 13.2459 44.6658C13.597 44.7154 13.744 44.6162 13.801 44.2727C13.8378 44.0559 13.8433 43.8355 13.8672 43.6169C13.8856 43.4534 13.8892 43.2844 13.9389 43.1301C14.0657 42.7297 14.0418 42.3366 13.8451 41.9784C13.4885 41.3318 13.5106 40.6503 13.5786 39.9541C13.6319 39.4177 13.7256 38.8923 13.8562 38.367C14.0455 37.6065 13.7275 37.0076 12.9996 36.6751C12.6301 36.5061 12.2459 36.3739 11.8728 36.2104C11.2846 35.9514 10.735 35.6299 10.2809 35.1652C9.7828 34.6545 9.54016 34.0428 9.49788 33.3301C9.33796 30.6408 10.2497 28.3244 11.9334 26.2781C12.3323 25.7931 12.7606 25.3339 13.1889 24.8765C13.3065 24.7498 13.3507 24.634 13.3249 24.4669C13.1466 23.2508 12.9738 22.0329 12.8029 20.8151C12.6944 20.0435 12.6007 19.2684 12.4886 18.4968C12.3783 17.7364 12.4389 16.9814 12.5547 16.2319C12.7919 14.7109 13.1558 13.2212 13.6687 11.7682C14.3892 9.73284 15.3579 7.83161 16.709 6.13613C17.4461 5.21031 18.2677 4.36165 19.2309 3.6728C19.6188 3.39542 20.0765 3.20622 20.5195 3.01701C21.8191 2.46593 23.1811 2.12243 24.5561 1.83219C25.3391 1.66687 26.1332 1.54379 26.9144 1.36377C27.4696 1.23702 28.01 1.04598 28.5578 0.888007C29.4971 0.616141 30.4511 0.397546 31.4179 0.26345C31.951 0.189973 32.4877 0.17344 33.0318 0.213853C34.3259 0.309373 35.6126 0.505925 36.914 0.520621C37.8772 0.531642 38.8239 0.426937 39.7705 0.274472C41.1326 0.0558766 42.5002 -0.0892411 43.8788 0.0522028C45.4688 0.213853 46.9522 0.704314 48.2867 1.58604C48.9687 2.03609 49.3786 2.7231 49.6543 3.48359C49.8822 4.10999 49.9613 4.76394 49.9815 5.42523C49.9907 5.70077 49.9815 5.97631 49.9833 6.25185C49.9852 6.5127 49.9944 6.498 50.2388 6.59352C50.851 6.83416 51.4722 7.0601 52.0641 7.34483C53.4814 8.02817 54.4611 9.11747 54.939 10.6238C55.1614 11.3236 55.3508 12.0327 55.5364 12.7436C55.6247 13.0797 55.7625 13.3681 55.9923 13.64C56.9206 14.733 57.7569 15.8921 58.3506 17.2073C58.472 17.4755 58.5565 17.7621 58.6429 18.045C58.7955 18.5409 58.7036 19.0314 58.5473 19.5035C58.3451 20.106 58.1025 20.6957 57.8782 21.289C57.7073 21.739 57.5143 22.1836 57.4536 22.6685C57.4077 23.0414 57.4628 23.3886 57.6338 23.7229C58.2036 24.8379 58.7587 25.9621 59.3377 27.0717C60.2292 28.7763 61.1336 30.4737 62.038 32.171C62.2273 32.5255 62.3652 32.8947 62.3891 33.2933C62.4258 33.9216 62.1906 34.3092 61.5711 34.3973C61.4369 34.4157 61.288 34.3882 61.1557 34.3459C60.7164 34.2081 60.2678 34.1567 59.8212 34.2596C59.0308 34.4414 58.6282 35.0954 58.5161 35.8651C58.4039 36.6255 58.5032 37.3475 58.8322 38.0492C59.1649 38.7545 58.9701 39.0393 58.3837 39.3718C58.0547 39.5591 57.9848 39.7373 58.1282 40.0808C58.1999 40.2498 58.3047 40.4115 58.4223 40.5529C58.7679 40.9625 58.7183 41.5026 58.2734 41.8057C58.1319 41.9031 57.961 41.9637 57.7955 42.0169C57.4279 42.1308 57.2827 42.2851 57.2514 42.6654C57.2055 43.2293 57.358 43.7565 57.608 44.2525C57.8451 44.7246 58.0602 45.204 58.1484 45.7312C58.2973 46.6166 58.1301 47.4212 57.5088 48.0898C56.8636 48.7842 56.1228 49.3481 55.1798 49.5796C54.9262 49.6421 54.6615 49.6861 54.4004 49.6935C53.2461 49.7247 52.0899 49.7376 50.9337 49.7615C50.5771 49.7688 50.2315 49.8404 49.919 50.0149C49.544 50.2225 49.1782 50.4466 48.8106 50.6671C48.6966 50.735 48.5863 50.8067 48.4779 50.882C47.965 51.2383 47.4191 51.4992 46.7813 51.5469C46.3144 51.5819 45.9909 51.85 45.7868 52.2634C45.7243 52.3919 45.6673 52.5224 45.6232 52.6583C45.2795 53.6998 44.9339 54.7395 44.5975 55.7829C44.4192 56.3358 44.2446 56.8906 44.2317 57.4821C44.2226 57.866 44.3494 58.182 44.6766 58.384C45.2096 58.7128 45.7354 59.0563 46.296 59.3337C48.1452 60.2448 50.0991 60.8694 52.0899 61.3874C53.5475 61.7658 55.0217 62.056 56.507 62.2948C57.1687 62.4014 57.836 62.4749 58.4977 62.5759C59.0105 62.653 59.5068 62.789 59.9682 63.0351C60.2531 63.1876 60.5013 63.3805 60.698 63.6432C60.7917 63.7681 60.8009 63.8562 60.6906 63.9848C60.5178 64.1832 60.3579 64.3963 60.2219 64.6222C60.1098 64.8078 60.0234 65.0135 59.9572 65.2211C59.834 65.605 59.8855 65.9669 60.187 66.2553C60.4792 66.5363 60.788 66.799 61.1005 67.0819C60.755 67.2674 60.3597 67.4511 60.2917 67.9453C60.2292 68.4045 60.437 68.7774 60.6649 69.1668C60.516 69.323 60.3653 69.4773 60.2182 69.6352C60.0859 69.7785 60.0252 69.942 60.0362 70.1441C60.0638 70.6933 60.0748 71.2425 60.0932 71.8193C59.5124 71.8671 58.9352 71.9149 58.3139 71.9663C58.6245 72.4145 58.9094 72.8278 59.2127 73.2632C59.1337 73.3164 59.0694 73.3716 58.9977 73.4101C58.5988 73.6195 58.1999 73.8308 57.7955 74.0292C57.6521 74.099 57.5878 74.1963 57.5621 74.3525C57.5216 74.6005 57.4738 74.8521 57.3874 75.0873C57.2643 75.4252 57.0235 75.6475 56.6191 75.484C56.4665 75.4216 56.3029 75.3885 56.154 75.3242C56.0162 75.2636 55.8893 75.1773 55.7276 75.0854C55.4905 75.7192 55.2386 76.3364 55.2497 77.0583C55.0052 77.1024 54.7607 77.1593 54.5144 77.1905C53.588 77.3099 52.656 77.3926 51.7333 77.5414C50.6616 77.7159 49.5992 77.9529 48.5312 78.1457C47.8731 78.2651 47.2096 78.3643 46.546 78.4488C45.1563 78.627 43.7575 78.6693 42.3587 78.6711C41.4672 78.6711 40.5756 78.6325 39.6841 78.6013C39.2117 78.5848 38.7375 78.5554 38.2669 78.5131C37.5997 78.4525 36.9287 78.4029 36.267 78.2982C35.1604 78.1255 34.0539 77.951 32.9601 77.7122C29.8242 77.0289 26.8703 75.8882 24.126 74.1963C21.286 72.4439 18.5416 70.5519 15.8064 68.6451C13.7661 67.2233 11.7312 65.7924 9.6045 64.501C7.97589 63.5127 6.31235 62.5961 4.50912 61.9587C3.95216 61.7621 3.37498 61.6225 2.80515 61.4572C2.73162 61.4352 2.65993 61.4113 2.51288 61.3654L2.51104 61.3617Z" fill="white"/>
</svg>
