<svg width="801" height="238" viewBox="0 0 801 238" fill="none" xmlns="http://www.w3.org/2000/svg">
<path d="M384.839 185.469H296.131V209.956H384.839V185.469Z" fill="#1D2361"/>
<path d="M336.519 154.156H298.624V181.218H336.519V154.156Z" fill="#1D2361"/>
<path d="M382.304 154.156H344.409V181.218H382.304V154.156Z" fill="#1D2361"/>
<path d="M289.262 154.156H251.367V181.218H289.262V154.156Z" fill="#1D2361"/>
<path d="M243.478 154.156H205.583V181.218H243.478V154.156Z" fill="#1D2361"/>
<path d="M291.797 185.469H203.089V209.956H291.797V185.469Z" fill="#1D2361"/>
<path d="M570.186 148.27H532.291V209.18H570.186V148.27Z" fill="#1D2361"/>
<path d="M615.726 148.27H577.831V209.18H615.726V148.27Z" fill="#1D2361"/>
<path d="M477.921 185.469H389.213V209.956H477.921V185.469Z" fill="#1D2361"/>
<path d="M524.401 148.27H486.506V209.18H524.401V148.27Z" fill="#1D2361"/>
<path d="M475.386 154.156H437.491V181.218H475.386V154.156Z" fill="#1D2361"/>
<path d="M429.602 154.156H391.707V181.218H429.602V154.156Z" fill="#1D2361"/>
<path d="M674.183 192.419C673.856 204.52 664.74 214.208 653.498 214.208C652.803 214.208 652.109 214.208 651.414 214.086L197.488 214.126V213.922C197.488 213.922 197.284 213.922 197.202 213.922C184.611 213.922 174.228 204.52 172.593 192.379H149.741V135.188H93.0416L92.4693 66.4699H115.443V55.596H92.3875L92.224 33.8482H113.645V28.4112H92.1831L91.9378 0H88.0543L87.7272 28.4112H77.4256V33.8482H87.6864L86.46 135.147H75.4225V118.06H57.313V135.147H23.2604V192.338H0L9.64754 226.268H9.81106L13.6537 238H773.766V226.268L800.296 192.338H674.143L674.183 192.419ZM49.0144 182.2H36.3418V171.203H49.0144V182.2ZM49.0144 164.581H36.3418V153.584H49.0144V164.581ZM69.5768 182.2H56.9042V171.203H69.5768V182.2ZM69.5768 164.581H56.9042V153.584H69.5768V164.581ZM90.0983 182.2H77.4256V171.203H90.0983V182.2ZM90.0983 164.581H77.4256V153.584H90.0983V164.581ZM110.62 182.2H97.9471V171.203H110.62V182.2ZM110.62 164.581H97.9471V153.584H110.62V164.581ZM131.141 182.2H118.469V171.203H131.141V182.2ZM131.141 164.581H118.469V153.584H131.141V164.581ZM754.225 214.413C750.219 214.413 746.99 211.183 746.99 207.177C746.99 203.171 750.219 199.941 754.225 199.941C758.232 199.941 761.461 203.171 761.461 207.177C761.461 211.183 758.232 214.413 754.225 214.413Z" fill="#1D2361"/>
</svg>
