<svg width="100" height="100" viewBox="0 0 100 100" fill="none" xmlns="http://www.w3.org/2000/svg">
<path d="M97.1349 46.1711H96.3484C95.6742 46.7602 92.9214 47.2651 90.2248 47.2651C88.4832 47.2651 86.9663 47.798 86.0956 48.5835H84.9719C84.6348 39.9439 81.1798 32.1178 75.7023 26.1992L76.2921 25.6101C77.5281 25.7223 79.1854 25.0211 80.5618 23.6466C82.472 21.7391 84.7753 20.1403 85.6741 20.1122L86.236 19.5512C87.3596 18.4292 87.0506 16.2693 85.5056 14.7265C83.9607 13.1837 81.7977 12.8752 80.6741 13.9972L80.1124 14.5582C80.0562 15.4558 78.455 17.756 76.5449 19.6634C75.309 20.8976 74.6067 22.3282 74.5506 23.5063L73.736 24.3198C67.8371 18.878 60.0562 15.4278 51.4888 15.0631V14.0814C52.3596 13.2398 52.9775 11.641 52.9775 9.78963C52.9775 7.09679 53.4832 4.34786 54.073 3.67465V2.88924C54.073 1.29036 52.3034 0 50.1405 0C47.9776 0 46.2079 1.29036 46.2079 2.88924V3.67465C46.8258 4.34786 47.3034 7.09679 47.3034 9.78963C47.3034 11.641 47.8933 13.2398 48.7921 14.0814V15.0631C40.0843 15.3436 32.191 18.8219 26.236 24.3478L25.6461 23.7588C25.7584 22.5245 25.0562 20.8696 23.6798 19.4951C21.7696 17.5877 20.1686 15.2875 20.1124 14.3899L19.5506 13.8289C18.427 12.7069 16.2641 13.0154 14.7191 14.5582C13.1742 16.101 12.8652 18.2609 13.9888 19.3829L14.5505 19.9439C15.4494 20 17.7528 21.5989 19.6629 23.4783C20.8989 24.7125 22.3315 25.4137 23.5112 25.4698L24.3259 26.2833C18.8202 32.202 15.3652 40.0281 15.0562 48.6676H14.2135C13.427 47.7139 11.7416 47.0407 9.80339 47.0407C7.10676 47.0407 4.35393 46.5358 3.67977 45.9467H2.89326C1.29213 45.9467 0 47.7139 0 49.8738C0 52.0337 1.29213 53.8009 2.89326 53.8009H3.67977C4.35393 53.1837 7.10676 52.7069 9.80339 52.7069C11.545 52.7069 13.0618 52.1739 13.9326 51.3885H15.0562C15.3933 60.0281 18.8483 67.8541 24.3259 73.7728L23.736 74.3619C22.5 74.2497 20.8427 74.9509 19.4663 76.3254C17.5562 78.2328 15.2528 79.8317 14.3539 79.8597L13.7921 80.4208C12.6686 81.5428 12.9775 83.7027 14.5225 85.2455C16.0674 86.7882 18.2303 87.0968 19.3539 85.9748L19.9157 85.4138C19.9719 84.5161 21.5731 82.216 23.4551 80.3085C24.691 79.0743 25.3933 77.6157 25.4494 76.4656L26.2641 75.6522C32.2191 81.1781 40.1124 84.6283 48.8203 84.9369V85.6662C47.7809 86.3955 47.0225 88.1627 47.0225 90.2104C47.0225 92.9032 46.5169 95.6522 45.927 96.3254V97.1108C45.927 98.7097 47.6966 100 49.8596 100C52.0225 100 53.7921 98.7097 53.7921 97.1108V96.3254C53.2022 95.6522 52.6966 92.9032 52.6966 90.2104C52.6966 88.5834 52.2472 87.1529 51.5169 86.2552V84.9369C60.1124 84.5723 67.8652 81.122 73.764 75.6802L74.354 76.2693C74.2416 77.5035 74.9438 79.1585 76.3202 80.533C78.2304 82.4404 79.8315 84.7406 79.8596 85.6382L80.4213 86.1992C81.5449 87.3212 83.7079 87.0126 85.2528 85.4698C86.7978 83.9271 87.1068 81.7672 85.9832 80.6451L85.4213 80.0841C84.5225 80.028 82.2192 78.4292 80.309 76.5498C79.0731 75.3156 77.6404 74.6143 76.4607 74.5582L75.6741 73.7728C81.1798 67.8541 84.6349 60.0281 84.9439 51.3885H85.7865C86.573 52.3422 88.2585 53.0154 90.1967 53.0154C92.8933 53.0154 95.6461 53.5203 96.3202 54.1094H97.1067C98.7079 54.1094 100 52.3422 100 50.1824C100 48.0225 98.7079 46.2553 97.1067 46.2553L97.1349 46.1711ZM85.1124 15.0912C86.3203 16.2973 86.545 18.0645 85.618 19.0463C86.0112 17.9804 85.6461 16.6059 84.6348 15.5961C83.6236 14.5863 82.2191 14.2216 81.1798 14.6143C82.163 13.6887 83.9046 13.885 85.1405 15.1193L85.1124 15.0912ZM15.5618 15.3717C14.5505 16.3815 14.1854 17.784 14.5787 18.8219C13.6517 17.8401 13.8483 16.101 15.0843 14.8668C16.2921 13.6606 18.0618 13.4362 19.0449 14.3619C17.9775 13.9692 16.6011 14.3338 15.5899 15.3436L15.5618 15.3717ZM2.89326 52.9593C1.54494 52.9593 0.449449 51.5288 0.449449 49.8177C0.449449 48.1066 1.54494 46.7041 2.89326 46.676C1.88202 47.1529 1.1517 48.3871 1.1517 49.8177C1.1517 51.2483 1.88202 52.4825 2.89326 52.9593ZM14.8595 84.8247C13.6517 83.6185 13.427 81.8513 14.3539 80.8696C13.9607 81.9355 14.3259 83.31 15.3371 84.3198C16.3483 85.3296 17.7528 85.6942 18.7921 85.3015C17.809 86.2272 16.0674 86.0309 14.8315 84.7966L14.8595 84.8247ZM84.4101 84.5442C85.4214 83.5344 85.7866 82.1318 85.3933 81.094C86.3203 82.0477 86.1236 83.8149 84.8876 85.0491C83.6798 86.2553 81.9102 86.4796 80.927 85.554C81.9663 85.9467 83.3708 85.5821 84.382 84.5722L84.4101 84.5442ZM46.9944 2.94531C46.9944 1.59889 48.427 0.504931 50.1405 0.504931C51.854 0.504931 53.2584 1.59889 53.2865 2.94531C52.809 1.93549 51.5731 1.20619 50.1405 1.20619C48.7079 1.20619 47.4719 1.93549 46.9944 2.94531ZM52.9775 96.9705C52.9775 98.317 51.545 99.4109 49.8315 99.4109C48.118 99.4109 46.7135 98.317 46.6854 96.9705C47.1629 97.9804 48.3989 98.7097 49.8315 98.7097C51.2641 98.7097 52.5 97.9804 52.9775 96.9705ZM49.9719 81.7952C32.3876 81.7952 18.0899 67.5176 18.0899 49.958C18.0899 32.3983 32.3876 18.1206 49.9719 18.1206C67.5562 18.1206 81.854 32.3983 81.854 49.958C81.854 67.5176 67.5562 81.7952 49.9719 81.7952ZM97.0506 53.2398C98.0618 52.763 98.7922 51.5287 98.7922 50.0982C98.7922 48.6676 98.0618 47.4334 97.0506 46.9565C98.3989 46.9565 99.4944 48.3871 99.4944 50.0982C99.4944 51.8092 98.3989 53.2118 97.0506 53.2398Z" fill="#1D2361"/>
<path d="M49.9994 47.7148C48.7915 47.7148 47.7803 48.6966 47.7803 49.9308C47.7803 51.165 48.7634 52.1468 49.9994 52.1468C51.2354 52.1468 52.2185 51.165 52.2185 49.9308C52.2185 48.6966 51.2354 47.7148 49.9994 47.7148ZM49.9994 51.4456C49.1567 51.4456 48.4825 50.7723 48.4825 49.9308C48.4825 49.0893 49.1567 48.4161 49.9994 48.4161C50.8421 48.4161 51.5162 49.0893 51.5162 49.9308C51.5162 50.7723 50.8421 51.4456 49.9994 51.4456Z" fill="#1D2361"/>
<path d="M50.0003 40.4492C44.7755 40.4492 40.5059 44.6848 40.5059 49.9303C40.5059 55.1757 44.7474 59.4113 50.0003 59.4113C55.2531 59.4113 59.4946 55.1757 59.4946 49.9303C59.4946 44.6848 55.225 40.4492 50.0003 40.4492ZM57.8373 48.5838H53.2868L56.5171 45.3581C57.1912 46.3118 57.6407 47.4057 57.8654 48.5838H57.8373ZM51.5171 42.1322C52.6407 42.3566 53.68 42.8054 54.5789 43.4506L51.5171 46.5081V42.1322ZM48.8205 42.0761V46.8166L45.4497 43.4506C46.4328 42.7493 47.5845 42.2725 48.8205 42.1042V42.0761ZM43.5396 45.3581L46.7699 48.5838H42.2193C42.416 47.4057 42.8935 46.3118 43.5676 45.3581H43.5396ZM42.1913 51.2767H46.7418L43.5115 54.5025C42.8373 53.5488 42.3879 52.4548 42.1632 51.2767H42.1913ZM48.8205 57.7564C47.5845 57.56 46.4328 57.0831 45.4497 56.4099L48.8205 53.0439V57.7844V57.7564ZM47.3317 49.9022C47.3317 48.4155 48.5396 47.2094 50.0283 47.2094C51.5171 47.2094 52.725 48.4155 52.725 49.9022C52.725 51.3889 51.5171 52.595 50.0283 52.595C48.5396 52.595 47.3317 51.3889 47.3317 49.9022ZM51.5171 57.7003V53.3244L54.5789 56.3819C53.68 57.027 52.6407 57.4758 51.5171 57.7003ZM56.5171 54.4745L53.2868 51.2486H57.8373C57.6407 52.4268 57.1632 53.5207 56.489 54.4745H56.5171Z" fill="#1D2361"/>
<path d="M50.0002 18.5703C32.6688 18.5703 18.5957 32.6516 18.5957 49.9307C18.5957 67.2098 32.6969 81.2912 50.0002 81.2912C67.3036 81.2912 81.4047 67.2098 81.4047 49.9307C81.4047 32.6516 67.3036 18.5703 50.0002 18.5703ZM50.0002 79.7484C33.5395 79.7484 20.1407 66.3683 20.1407 49.9307C20.1407 33.4932 33.5395 20.1131 50.0002 20.1131C66.4609 20.1131 79.8598 33.4932 79.8598 49.9307C79.8598 66.3683 66.4609 79.7484 50.0002 79.7484Z" fill="#1D2361"/>
<path d="M50 21.543C34.3258 21.543 21.5449 34.2779 21.5449 49.9581C21.5449 65.6383 34.2977 78.3732 50 78.3732C65.7023 78.3732 78.4551 65.6383 78.4551 49.9581C78.4551 34.2779 65.7023 21.543 50 21.543ZM51.5168 23.1699C57.8371 23.5065 63.5955 26.0591 68.0056 30.0423L57.3595 40.6734C55.7022 39.355 53.7079 38.4855 51.4888 38.205V23.1699H51.5168ZM48.8202 23.1699V38.1769C46.5169 38.4013 44.382 39.2989 42.6685 40.6734L32.0224 30.0423C36.5168 26.003 42.3596 23.4223 48.8202 23.1418V23.1699ZM30.1123 31.9778L40.7584 42.6089C39.4101 44.2919 38.5112 46.3676 38.2584 48.6117H23.2303C23.5393 42.2162 26.0955 36.4378 30.1404 31.9778H30.1123ZM23.2022 51.3045H38.2584C38.5112 53.5486 39.4101 55.6243 40.7584 57.3073L30.1123 67.9384C26.0955 63.5065 23.5393 57.7 23.2022 51.3045ZM48.8202 76.7463C42.3596 76.4658 36.5168 73.9132 32.0224 69.8459L42.6685 59.2147C44.4101 60.5892 46.5169 61.4868 48.8202 61.7112V76.7183V76.7463ZM39.6067 49.9581C39.6067 44.2078 44.2696 39.5514 50.0281 39.5514C55.7865 39.5514 60.4494 44.2358 60.4494 49.9581C60.4494 55.6804 55.7865 60.3648 50.0281 60.3648C44.2696 60.3648 39.6067 55.6804 39.6067 49.9581ZM51.545 76.7183V61.6832C53.736 61.4027 55.7584 60.5331 57.4157 59.2147L68.0618 69.8459C63.6517 73.8291 57.8933 76.3817 51.573 76.7183H51.545ZM69.9438 67.9384L59.2978 57.3073C60.6461 55.6243 61.5168 53.5486 61.7977 51.3045H76.8258C76.5168 57.7 73.9607 63.4784 69.9438 67.9384ZM61.7977 48.6117C61.5449 46.3676 60.6461 44.2919 59.2978 42.6089L69.9438 31.9778C73.9607 36.4097 76.5168 42.2162 76.8258 48.6117H61.7977Z" fill="#1D2361"/>
</svg>
